<svg xmlns="http://www.w3.org/2000/svg" width="1200" height="420" viewBox="0 0 1200 420" role="img" aria-labelledby="title desc">
  <title id="title">Muzi Creator — 本地创作工作台</title>
  <desc id="desc">让灵感与知识落在本地创作里。结构示意：灵感与只读知识支持一个主题目录，再由创作者组织多渠道稿件。</desc>
  <rect width="1200" height="420" rx="26" fill="#F8F5EC"/>
  <g id="folder-outline" fill="none" stroke="#54765C" stroke-width="2">
    <path d="M48 88V55Q48 36 67 36H371L404 70H1133Q1152 70 1152 89V364Q1152 384 1132 384H68Q48 384 48 364V88Z"/>
  </g>
  <g id="title-block" font-family="Segoe UI, Microsoft YaHei, PingFang SC, sans-serif">
    <text x="74" y="64" fill="#54765C" font-size="22" font-weight="600">本地创作工作台</text>
    <text x="80" y="170" fill="#294C3D" font-size="82" font-weight="750" letter-spacing="-2">Muzi Creator</text>
    <text x="82" y="232" fill="#294C3D" font-size="40" font-weight="500">让灵感与知识，落在本地创作里。</text>
  </g>
  <g id="project-proof" font-family="Segoe UI, Microsoft YaHei, PingFang SC, sans-serif" font-size="36" font-weight="600" fill="#294C3D">
    <path d="M80 270H1120" stroke="#D7DED1" stroke-width="2"/>
    <path d="M84 304h25v32H84zM91 312h11m-11 8h11" fill="none" stroke="#54765C" stroke-width="2" stroke-linejoin="round"/>
    <text x="128" y="333">灵感与知识</text>
    <path d="M352 320h64m-12-9 12 9-12 9" fill="none" stroke="#B57452" stroke-width="3" stroke-linecap="round" stroke-linejoin="round"/>
    <path d="M457 309h15l7 7h24v23h-46z" fill="#E6ECDD" stroke="#54765C" stroke-width="2" stroke-linejoin="round"/>
    <text x="522" y="333">主题目录</text>
    <path d="M725 320h64m-12-9 12 9-12 9" fill="none" stroke="#B57452" stroke-width="3" stroke-linecap="round" stroke-linejoin="round"/>
    <path d="M831 307h27v32h-27zM839 300h27v31" fill="none" stroke="#54765C" stroke-width="2" stroke-linejoin="round"/>
    <text x="887" y="333">多渠道稿件</text>
  </g>
</svg>
